<?xml version="1.0" encoding="utf-8"?>
<!-- Generator: Adobe Illustrator 26.0.0, SVG Export Plug-In . SVG Version: 6.00 Build 0)  -->
<svg version="1.1" id="レイヤー_1" xmlns="http://www.w3.org/2000/svg" xmlns:xlink="http://www.w3.org/1999/xlink" x="0px"
	 y="0px" viewBox="0 0 141.73 141.73" style="enable-background:new 0 0 141.73 141.73;" xml:space="preserve">
<style type="text/css">
	.st0{fill:#1F1E1D;}
</style>
<g>
	<path class="st0" d="M42.77,80.27c0-1.98,1.4-3.43,3.26-3.43c1.98,0,3.26,1.57,3.26,3.43s-1.28,3.2-3.26,3.2
		C44.34,83.47,42.77,82.25,42.77,80.27z"/>
	<path class="st0" d="M87.62,80.27c0-1.98,1.4-3.43,3.26-3.43c1.98,0,3.26,1.57,3.26,3.43s-1.28,3.2-3.26,3.2
		C89.19,83.47,87.62,82.25,87.62,80.27z"/>
	<path class="st0" d="M64.26,82.35c-1.04-0.03-2.2-0.05-3.6-0.05c-1.13,0-2.24,0.01-3.31,0.04V60.81c2.26-0.75,5.03-1.84,6.43-2.68
		c0.26,0.02,0.45,0.11,0.6,0.28c-0.01,0.46-0.06,1.06-0.11,1.57c-0.04,0.41-0.07,0.76-0.07,0.93c0,0.76,0.49,0.82,0.64,0.82
		c0.2,0,0.52-0.13,1.27-0.5c1.07-0.63,3.87-2.29,6.53-2.29c4.2,0,6.92,2.74,6.92,6.98v16.43c-1.08-0.02-2.25-0.03-3.48-0.03
		c-1.16,0-2.3,0.02-3.37,0.05v-15.4c0-2.81-1.66-4.48-4.43-4.48c-1.79,0-3.03,0.83-3.54,1.54c-0.37,0.43-0.53,1.14-0.53,2.36v10.41
		c0,0.76,0.02,1.36,0.05,1.85V82.35z"/>
	<path class="st0" d="M117.98,84.05c-0.26-0.02-0.45-0.11-0.6-0.28c0.01-0.46,0.06-1.06,0.11-1.57c0.04-0.41,0.07-0.76,0.07-0.93
		c0-0.76-0.49-0.82-0.64-0.82c-0.2,0-0.5,0.12-1.26,0.5c-1.08,0.64-3.88,2.29-6.53,2.29c-4.2,0-6.92-2.74-6.92-6.98V59.83
		c1.08,0.02,2.25,0.03,3.49,0.03c1.16,0,2.3-0.02,3.37-0.05v15.4c0,2.81,1.65,4.48,4.42,4.48c1.68,0,2.99-0.77,3.54-1.54
		c0.37-0.43,0.53-1.12,0.53-2.36V65.39c0-0.76-0.01-1.36-0.05-1.85v-3.71c1.04,0.03,2.2,0.05,3.6,0.05c1.13,0,2.24-0.01,3.31-0.04
		v21.54C122.15,82.12,119.38,83.21,117.98,84.05z"/>
	<path class="st0" d="M28.51,67.86c-2.75-1.34-3.76-2.55-3.76-4.04c0-1.71,1.18-2.74,3.1-2.74c2.22,0,3.72,1.32,4.81,4.55l1.41,0
		l-0.8-5.58c-0.68-0.41-3.15-1.11-5.94-1.11c-4.1,0-8.89,1.87-8.89,7.15c0,2.88,1.73,4.98,5.8,7.01c2.1,1.05,3.84,2.34,3.84,4.68
		c0,2.05-1.13,3.1-3.19,3.1c-3.19,0-5.5-3.35-6.23-5.7l-1.33-0.06l0.8,6.28c1.49,1.16,3.78,1.73,6.99,1.73
		c4.6,0,9.53-1.96,9.59-7.44C34.7,72.35,32.79,69.94,28.51,67.86z"/>
</g>
</svg>
