<?xml version="1.0" encoding="UTF-8" standalone="no"?><!DOCTYPE svg PUBLIC "-//W3C//DTD SVG 1.1//EN" "http://www.w3.org/Graphics/SVG/1.1/DTD/svg11.dtd"><svg width="100%" height="100%" viewBox="0 0 24 24" version="1.1" xmlns="http://www.w3.org/2000/svg" xmlns:xlink="http://www.w3.org/1999/xlink" xml:space="preserve" xmlns:serif="http://www.serif.com/" style="fill-rule:evenodd;clip-rule:evenodd;stroke-linejoin:round;stroke-miterlimit:2;"><g id="レイヤー3"><circle cx="13.744" cy="12.228" r="9.296" style="fill:#ffd000;"/></g><g id="レイヤー2"><path d="M16.317,9.837c0,0.484 -0.342,0.841 -0.798,0.841c-0.484,0 -0.798,-0.385 -0.798,-0.841c0,-0.456 0.313,-0.783 0.798,-0.783c0.413,0 0.798,0.299 0.798,0.783" style="fill:#2565ca;fill-rule:nonzero;"/><path d="M9.283,9.837c0,0.484 -0.342,0.841 -0.797,0.841c-0.485,0 -0.798,-0.385 -0.798,-0.841c0,-0.456 0.313,-0.783 0.798,-0.783c0.413,0 0.797,0.299 0.797,0.783" style="fill:#2565ca;fill-rule:nonzero;"/><path d="M13.03,11.094c0.255,0.008 0.538,0.011 0.881,0.011c0.276,0 0.548,-0.003 0.811,-0.009l0,5.275c-0.553,0.184 -1.231,0.451 -1.575,0.657c-0.064,-0.004 -0.111,-0.027 -0.146,-0.069c0.002,-0.112 0.015,-0.26 0.026,-0.384c0.009,-0.101 0.016,-0.186 0.016,-0.229c0,-0.186 -0.12,-0.201 -0.158,-0.201c-0.048,0 -0.127,0.031 -0.31,0.124c-0.263,0.155 -0.949,0.56 -1.599,0.56c-1.029,0 -1.694,-0.671 -1.694,-1.708l0,-4.024c0.264,0.006 0.55,0.008 0.853,0.008c0.285,0 0.564,-0.003 0.825,-0.011l0,3.771c0,0.687 0.405,1.097 1.084,1.097c0.438,0 0.741,-0.203 0.868,-0.377c0.09,-0.105 0.13,-0.28 0.13,-0.578l0,-2.55c0,-0.186 -0.004,-0.333 -0.013,-0.454l-0,-0.91Z" style="fill:#2565ca;fill-rule:nonzero;"/><path d="M3.823,10.677c0.064,0.004 0.111,0.027 0.147,0.069c-0.002,0.113 -0.015,0.261 -0.026,0.385c-0.009,0.101 -0.016,0.186 -0.016,0.229c0,0.186 0.121,0.2 0.158,0.2c0.048,0 0.124,-0.03 0.309,-0.123c0.263,-0.155 0.949,-0.56 1.599,-0.56c1.029,0 1.694,0.67 1.694,1.708l0,4.024c-0.264,-0.006 -0.55,-0.009 -0.854,-0.009c-0.285,0 -0.563,0.004 -0.825,0.011l0,-3.771c0,-0.687 -0.405,-1.098 -1.084,-1.098c-0.41,0 -0.731,0.19 -0.868,0.378c-0.092,0.106 -0.13,0.275 -0.13,0.577l0,2.55c0,0.186 0.003,0.333 0.013,0.454l0,0.91c-0.255,-0.008 -0.538,-0.012 -0.881,-0.012c-0.276,0 -0.548,0.003 -0.81,0.01l0,-5.275c0.553,-0.185 1.232,-0.451 1.574,-0.657" style="fill:#2565ca;fill-rule:nonzero;"/><path d="M17.835,14.644c0.673,0.329 0.921,0.625 0.921,0.99c0,0.419 -0.29,0.671 -0.76,0.671c-0.542,0 -0.91,-0.323 -1.177,-1.113l-0.346,0.001l0.196,1.366c0.166,0.1 0.771,0.271 1.455,0.271c1.005,0 2.178,-0.459 2.178,-1.751c0,-0.706 -0.424,-1.22 -1.419,-1.717c-0.513,-0.257 -0.941,-0.573 -0.941,-1.146c0,-0.503 0.278,-0.759 0.78,-0.759c0.781,0 1.346,0.82 1.525,1.395l0.326,0.015l-0.195,-1.538c-0.366,-0.285 -0.926,-0.423 -1.713,-0.423c-1.126,0 -2.334,0.479 -2.349,1.822c0,0.816 0.469,1.407 1.518,1.916" style="fill:#2565ca;fill-rule:nonzero;"/></g></svg>