<?xml version="1.0" encoding="utf-8"?>
<!-- Generator: Adobe Illustrator 26.0.0, SVG Export Plug-In . SVG Version: 6.00 Build 0)  -->
<svg version="1.1" id="レイヤー_1" xmlns="http://www.w3.org/2000/svg" xmlns:xlink="http://www.w3.org/1999/xlink" x="0px"
	 y="0px" viewBox="0 0 141.73 42.52" style="enable-background:new 0 0 141.73 42.52;" xml:space="preserve">
<style type="text/css">
	.st0{fill:#1F1E1D;}
</style>
<g>
	<path class="st0" d="M36.43,32.52c0-2.42,1.71-4.21,3.99-4.21c2.42,0,3.99,1.92,3.99,4.21c0,2.28-1.57,3.92-3.99,3.92
		C38.35,36.44,36.43,34.94,36.43,32.52z"/>
	<path class="st0" d="M91.4,32.52c0-2.42,1.71-4.21,3.99-4.21c2.42,0,3.99,1.92,3.99,4.21c0,2.28-1.57,3.92-3.99,3.92
		C93.33,36.44,91.4,34.94,91.4,32.52z"/>
	<path class="st0" d="M62.76,35.07c-1.28-0.04-2.69-0.06-4.41-0.06c-1.38,0-2.74,0.01-4.06,0.05V8.66c2.76-0.92,6.16-2.26,7.88-3.29
		c0.32,0.02,0.55,0.13,0.73,0.34c-0.01,0.56-0.08,1.3-0.13,1.92c-0.04,0.5-0.08,0.93-0.08,1.14c0,0.93,0.6,1,0.79,1
		c0.24,0,0.64-0.16,1.55-0.62c1.32-0.78,4.75-2.8,8-2.8c5.15,0,8.48,3.36,8.48,8.55v20.14c-1.32-0.03-2.75-0.04-4.27-0.04
		c-1.42,0-2.82,0.02-4.13,0.06V16.19c0-3.44-2.03-5.49-5.42-5.49c-2.19,0-3.71,1.02-4.34,1.89c-0.45,0.53-0.65,1.4-0.65,2.89v12.76
		c0,0.93,0.02,1.67,0.07,2.27V35.07z"/>
	<path class="st0" d="M128.62,37.15c-0.32-0.02-0.55-0.13-0.73-0.34c0.01-0.56,0.08-1.3,0.13-1.92c0.04-0.5,0.08-0.93,0.08-1.14
		c0-0.93-0.6-1-0.79-1c-0.24,0-0.62,0.15-1.55,0.62c-1.32,0.78-4.75,2.81-8,2.81c-5.15,0-8.48-3.36-8.48-8.55V7.47
		c1.32,0.03,2.75,0.04,4.27,0.04c1.42,0,2.82-0.02,4.13-0.06v18.87c0,3.44,2.03,5.49,5.42,5.49c2.05,0,3.66-0.95,4.34-1.89
		c0.46-0.53,0.65-1.37,0.65-2.89V14.28c0-0.93-0.02-1.67-0.06-2.27V7.45c1.28,0.04,2.69,0.06,4.41,0.06c1.38,0,2.74-0.01,4.06-0.05
		v26.4C133.73,34.79,130.33,36.12,128.62,37.15z"/>
	<path class="st0" d="M18.94,17.3c-3.37-1.65-4.61-3.13-4.61-4.95c0-2.1,1.45-3.36,3.8-3.36c2.72,0,4.56,1.62,5.89,5.57l1.73,0
		l-0.98-6.84c-0.83-0.5-3.86-1.35-7.28-1.35c-5.03,0-10.9,2.3-10.9,8.77c0,3.53,2.12,6.11,7.1,8.59c2.57,1.28,4.71,2.87,4.71,5.74
		c0,2.51-1.39,3.8-3.91,3.8c-3.91,0-6.74-4.1-7.63-6.98L5.24,26.2l0.97,7.69c1.83,1.42,4.64,2.12,8.57,2.12
		c5.64,0,11.68-2.4,11.76-9.12C26.54,22.81,24.2,19.85,18.94,17.3z"/>
</g>
</svg>
