<?xml version="1.0" encoding="UTF-8" standalone="no"?>
<!DOCTYPE svg PUBLIC "-//W3C//DTD SVG 1.1//EN" "http://www.w3.org/Graphics/SVG/1.1/DTD/svg11.dtd">
<svg width="100%" height="100%" viewBox="0 0 24 24" version="1.1" xmlns="http://www.w3.org/2000/svg" xmlns:xlink="http://www.w3.org/1999/xlink" xml:space="preserve" xmlns:serif="http://www.serif.com/" style="fill-rule:evenodd;clip-rule:evenodd;stroke-linejoin:round;stroke-miterlimit:2;">
    <path d="M6.645099948409,16.382953237676c0,-0.528247430116 0.372964596736,-0.917407168984 0.870727053428,-0.917407168984c0.528723757826,0 0.870727053428,0.419644712292 0.870727053428,0.917407168984c0,0.497762456692 -0.342003295603,0.855008239006 -0.870727053428,0.855008239006c-0.451082341136,0 -0.870727053428,-0.32676080889 -0.870727053428,-0.855008239006" style="fill:#312a28;fill-rule:nonzero;"/>
    <path d="M14.323026301914,16.382953237676c0,-0.528247430116 0.372964596736,-0.917407168984 0.870250725718,-0.917407168984c0.529200085535,0 0.870727053428,0.419644712292 0.870727053428,0.917407168984c0,0.497762456692 -0.341526967893,0.855008239006 -0.870727053428,0.855008239006c-0.450606013426,0 -0.870250725718,-0.32676080889 -0.870250725718,-0.855008239006" style="fill:#312a28;fill-rule:nonzero;"/>
    <path d="M10.233276585977,15.011081800817c-0.278175382496,-0.008573898776 -0.587312066125,-0.012384520454 -0.961705645991,-0.012384520454c-0.301039112564,0 -0.59779127574,0.002857966259 -0.885016884721,0.010002881905l0,-5.756896700072c0.603030880547,-0.201010293516 1.343720469213,-0.492046524175 1.718590376788,-0.717349530888c0.069543845624,0.004763277098 0.120987238277,0.029055990295 0.159569782767,0.075259778141c-0.001905310839,0.122416221406 -0.016671469841,0.283891315013 -0.028103334875,0.419168384582c-0.010002881905,0.110031700953 -0.017624125261,0.202915604355 -0.017624125261,0.24959571991c0,0.203391932064 0.131466447892,0.219110746486 0.171954303221,0.219110746486c0.052872375783,0 0.138611363538,-0.033819267392 0.338192673924,-0.13480074186c0.287225608981,-0.169572664672 1.035536441003,-0.611604779323 1.745264728534,-0.611604779323c1.122704411887,0 1.848627841551,0.73211568989 1.848627841551,1.864346655972l0,4.39221781163c-0.287701936691,-0.006668587937 -0.600172914289,-0.009050226485 -0.931220672567,-0.009050226485c-0.310565666759,0 -0.615415401001,0.003810621678 -0.900735699143,0.011908192744l0,-4.115471412264c0,-0.749739815151 -0.442032114651,-1.197487862319 -1.182721703316,-1.197487862319c-0.477756692882,0 -0.80880445116,0.221968712745 -0.946939486989,0.411547141226c-0.098599835919,0.11479497805 -0.142421985216,0.305326061952 -0.142421985216,0.630657887713l0,2.783182808086c0,0.203391932064 0.004286949388,0.363914370251 0.014289831293,0.495380818143l0,0.992666947125Z" style="fill:#312a28;fill-rule:nonzero;"/>
    <path d="M20.281885950922,15.465546068692c-0.069543845624,-0.004763277098 -0.120987238277,-0.029055990295 -0.160046110477,-0.074783450431c0.002381638549,-0.122892549116 0.016671469841,-0.284367642722 0.028579662585,-0.419644712292c0.009526554195,-0.110031700953 0.017624125261,-0.202915604355 0.017624125261,-0.24959571991c0,-0.202915604355 -0.131942775602,-0.218634418777 -0.172430630931,-0.218634418777c-0.052396048073,0 -0.13480074186,0.032390284263 -0.337716346215,0.13432441415c-0.287225608981,0.169572664672 -1.035536441003,0.611604779323 -1.745264728534,0.611604779323c-1.123180739597,0 -1.848627841551,-0.73163936218 -1.848627841551,-1.864346655972l0,-4.39221781163c0.287701936691,0.006668587937 0.600172914289,0.009526554195 0.931697000276,0.009526554195c0.310565666759,0 0.614939073291,-0.004286949388 0.900259371433,-0.012384520454l0,4.115471412264c0,0.749739815151 0.442032114651,1.197964190028 1.182721703316,1.197964190028c0.447748047168,0 0.798325241546,-0.207202553742 0.946939486989,-0.412499796646c0.100028819048,-0.11527130576 0.142421985216,-0.299610129435 0.142421985216,-0.630181560003l0,-2.783182808086c0,-0.202915604355 -0.003810621678,-0.363438042541 -0.014289831293,-0.495380818143l0,-0.992666947125c0.278175382496,0.008573898776 0.587312066125,0.012860848163 0.961705645991,0.012860848163c0.301039112564,0 0.598267603449,-0.003334293968 0.884540557011,-0.010479209615l0,5.756896700072c-0.603030880547,0.201486621225 -1.344673124632,0.492522851884 -1.718114049078,0.717349530888" style="fill:#312a28;fill-rule:nonzero;"/>
    <path d="M4.988432173889,11.136298780291c-0.734497328439,-0.359151093154 -1.005527795288,-0.682101280366 -1.005527795288,-1.080311245719c0,-0.457750929072 0.316281599276,-0.73211568989 0.82928654268,-0.73211568989c0.592075343223,0 0.993619602544,0.352482505217 1.284179505494,1.215111987579l0.377727873834,-0.00095265542l-0.213871141679,-1.491382059236c-0.181480857416,-0.109555373243 -0.841194735423,-0.295323180047 -1.588076584316,-0.295323180047c-1.096982715561,0 -2.377351599376,0.50062042295 -2.377351599376,1.911503099238c0,0.77069823438 0.46299053388,1.331335948759 1.549017712116,1.873396882458c0.55968505896,0.280080693335 1.026486214517,0.625418282905 1.026486214517,1.250836565811c0,0.548729521635 -0.302944423403,0.82881021497 -0.851197617328,0.82881021497c-0.852150272748,0 -1.468994656878,-0.894543438916 -1.664289017876,-1.52281968808l-0.355340471476,-0.016671469841l0.21244215855,1.678102521459c0.399162620773,0.310565666759 1.010767400095,0.46156155075 1.86958626078,0.46156155075c1.228925491162,0 2.547400591758,-0.522531497599 2.564072061599,-1.988191860508c0,-0.890732817238 -0.511575960274,-1.535204208533 -1.65714410223,-2.091554973524" style="fill:#312a28;fill-rule:nonzero;"/>
</svg>
